<svg xmlns="http://www.w3.org/2000/svg" id="Layer_2" viewBox="0 0 955.03 386">
  <defs>
    
  </defs>
  <g id="Layer_1-2">
    <g id="_9MgJo4">
      <g>
        <path d="M2.79,248.25c-.48.8.32,1.52,1.3,1.55l26.69.75c4.32.12,8.4,1.02,12.69,1.16l24.17.83c2.43.08,4.39,2.3,7.39,1.8,9.98-1.67,19.83-1.03,29.89-1.48,2.96-.13,4.89,1.44,7.31,1.73,10.74,1.33,25.78-.73,32.75,1.5-2.36.1-4.71.13-7.07.11l-49.42-.49-72.57-.59c1.54,1.61,4,1.87,6.26,1.89l84.2.71c10.94.09,21.16.48,31.53.48h13.99c0,.41-.2,1.11.05,1.45.27.36,1,.73,1.99.74l103.46.34,315.54-.05,159.95-.21c3.76,0,6.05-.55,9.48-.6l86.14-1.2,53.67-.52c.88,0,1.6.11,1.92-.49.2-.38.06-1.02.04-1.45h30.97c.95,1.69-13.02.52-16.41,2.9l-5.71,4.01c-3.3,2.32-6.07,5.15-10.89,3.78-6.57-1.87-1.94,3.24-16.07,5.29-6.06.88-11.36,2.47-17.15,4.59-10.53,3.85-27.79,3.46-28.43,3.64-2.99.88-5.71,2.25-8.99,2.41-11.1.54-21.35,3.82-32.33,5.22l-26.84,3.44-13.84.87c-6.79.43-12.89,2.92-19.78,3.46-5.46.43-11.62,1.63-15.19,6.3,5.75,3.59,11.92,1.38,17.75,2.33s11.47,3.74,18.08,3.77c.13,3.05-1.49,4.33-1.86,7.06l13.87-8.23c1.24-.74,2.25-.83,3.05.07-3.86,1.7-7.4,4.09-11.24,6.77-20.21,14.09-27.64,18.05-52.77,18.94-17.97.64-24.82,13.47-44,20.96-4.25,1.66-8.49,2.28-12.35,4.8-10.58,6.91-20.8,13.89-31.95,19.74-7.59,3.98-14.85,6.35-23.76,6.61-57.73,1.74-114.71,1.04-172.46.3l-34.24-.44c-21.2-.27-43.96-23.12-53.28-27.2s-18.45-6.99-26.89-13.35c-12.84-9.67-18.62-11.44-34.52-12.07-27.59-1.1-42.34-22.36-51.92-24.32l-13.17-2.7c6.92.59,13.91,1.06,21.9,5.73l7.05,4.12c3.33,1.94,5.89,4.78,9.49,5.69-1.31-2.4-13.61-10.43-11.33-13.82.35-.52,2.03-.66,2.74-.42,3.62,1.23,5.83-.52,8.75-1.47,5.57-1.81,24.23-1.97,20.38-5.71-2.65-2.57-6.91-3.48-10.51-3.56-6.19-.14-11.31-2.19-17.06-3.52-11.98-2.77-8-3.87-18.29-3.99l-21.46-.25c-4.63-.05-8.41-1.48-12.85-2.3-5.76-1.06-11.14-1.59-16.9-3.23-15.98-4.55-23.47-.24-32.04-3.99-3.53-1.55-5.49-2.14-9.84-1.46s-10.3-3.99-14.05-3.08c-6.18,1.5-8.7-.04-13.51-2.75-3.51-1.98-9.3-2.41-13.47-3.37-14.63-3.37-18.95,2.03-25.01-6.41-6.65-.31-10.59-3.97-16.89-1.09-3.11,1.42-6.08,1.3-8.53-1.21-5.86,3.58,22.14,9.3,22.23,8.73,2.56,1.45,4.92,2.36,7.8,3.26,20.74,6.49,41.32,11.29,62.34,16.29,5.03,1.2,9.51,2.69,14.66,3.29,1.55.18,2.81,1.35,2.52,2.55-31.1-7.3-62.27-14.17-93.11-24.02l-31.76-10.15c-2.81-.9-5.11-2.66-5.05-5.23.05-2.41.03-5.09,2.79-5.5ZM9.34,257.04l1.74-1.54c-1.47-.61-3.86-.64-4.16.55,1.37,2.82,4.88,3.83,7.15,2.7-1.82-.99-3.13-1.41-4.73-1.72ZM61.09,259.68c-5.42-.79-10.3-.84-15.17.04,5.42.79,10.3.84,15.17-.04ZM532.12,314.27l90.51.44c13.14.06,25.58.9,38.63.27,3.38-.16,6.1-.84,9.61-.2,13.76,2.51,27.73-3.04,39.83-2.81,6.94-3.38-14.19-3.79-14.39-3.8l-44.82-.33c-3.92-.03-8.13-.51-11.84-1.14-3.61-.61-5.97.23-9.39.24l-82.6.12c-4,0-7.26-1.45-11.33-.07-2.97,1-7.12-2.1-9.9-1.37-7.13,1.88-13.79-.28-20.9-.12-9.79.22-19.03.81-28.98.01l-15.88-1.27c-11.02-.88-21.87,2.58-30.68.6-5.4-1.22-12.41-.02-16.48.08l-29.61.73-50.09.76c-3.91.06-7.48,1.13-11.33.06-5.17-1.44-10.5,1.06-15.63.39-5.08-.66-9.27-.12-14.21-.04l-34.58.55c-1.25.02-2.19,1.33-2.81,1.67-.81.43-.77,2.8.66,2.83l33.37.73,15.72,1.01,30.64.91c3.93.12,7.25-.15,11.05-.07,7.29.17,14.14,1.38,21.46.15,6.6-1.11,13.43.14,20.08.18l18.8.1,68.56.11c6.08,0,11.91-1.31,17.93-.46,9.32,1.31,23.57-.66,25.82.02,4.49,1.35,7.95-.29,12.81-.27ZM736.15,316.14c0-.47-.38-.86-.86-.86s-.86.38-.86.86.38.86.86.86.86-.38.86-.86ZM733.3,317.64c0-.28-.22-.5-.5-.5s-.5.22-.5.5.22.5.5.5.5-.22.5-.5ZM730.93,319.64c0-.35-.28-.63-.63-.63s-.63.28-.63.63.28.63.63.63.63-.28.63-.63ZM728.16,321.13c0-.47-.38-.86-.86-.86s-.86.38-.86.86.38.86.86.86.86-.38.86-.86ZM725.3,322.63c0-.28-.22-.5-.5-.5s-.5.22-.5.5.22.5.5.5.5-.22.5-.5ZM721.31,324.63c0-.28-.22-.5-.5-.5s-.5.22-.5.5.22.5.5.5.5-.22.5-.5ZM709.63,327.04c-2.57-.14-2.87,1.07-.54,1.23,1.15-.13,1.59-.66.54-1.23ZM705.32,329.71c1.14-.54,1.1-1.67.12-1.76l-6.18,1.71c2.07.78,4.18.83,6.06.05ZM695.45,330.13c0-.61-.5-1.11-1.11-1.11s-1.11.5-1.11,1.11.5,1.11,1.11,1.11,1.11-.5,1.11-1.11ZM681.35,331.62c0-.28-.22-.5-.5-.5s-.5.22-.5.5.22.5.5.5.5-.22.5-.5ZM684.35,331.62c0-.28-.22-.5-.5-.5s-.5.22-.5.5.22.5.5.5.5-.22.5-.5ZM578.76,348.09c7.63,0,12.97-1.34,19.8-.98s13.73-1.75,20.89-.51c3-4.15,7.54-3.66,11.97-4.41l22.04-3.73c3.37-.57,6.65-1.49,7.16-5.58l-10.89-.69-329.44-.11c-13.41,2.98-11.5-1.45-26.02,2.3-1.19.31-3.37-3.28-5.14-.55l9.81,6.69c6.05-4.1,19.08,4.43,26.27,5.08l28.91,2.61,224.63-.12ZM678.99,332.62c0-.35-.28-.63-.63-.63s-.63.28-.63.63.28.63.63.63.63-.28.63-.63ZM282.07,334.03c-2.57-.14-2.87,1.07-.54,1.23,1.15-.13,1.59-.66.54-1.23ZM288.67,338.77c-2.47-.91-2.37-2.33-3.85-2.56.87,1.76,2.33,3.58,3.85,2.56ZM300.52,347.12c-1.93-3.97-5.16-6.89-9.65-6.76,2.78,3.01,5.74,5.29,9.65,6.76ZM306.5,350.86c-1.43-3.02-3.17-4.84-5.34-2.84,1.95,1.84,3.86,1.95,5.34,2.84ZM650.34,350.16c1.47-.12,1.1-1.43,1.03-2.52-.03-.41-.63-.72-1.46-.55,1.49-.3-3.01,2.18-2.54,3.49.17.47.96.72,1.46.54.36-.13.53-.87,1.52-.95ZM636.11,354.77c3.2-1.27,6.1-.96,8.65-2.61-1.76-2.66-4.02-.88-6.3-.87-4.6.02-8.62-1.27-13.2.02.62,2.5,1.97,5.58,4.33,6.69,2.83,1.33,4.39-2.38,6.52-3.23ZM490.63,366.96c5.98-.14,21.09-1.77,27.03-1.18,19.11,1.9,21.78-.99,33.38-1.32l33.59-.98,25.67-.31c2.38-1.87,5.5-1.28,7.53-4.88l-24.77-.89-118.93-.77c-17.35-.11-33.73-.23-50.93-.03l-60.55.7c-5.76.07-10.9,1.63-17.06.7-2.31-.35-7.87-.33-8.43,1.85.03,6.53,16.59,3.1,30.9,5.99,6.05,1.22,12.21-.25,18.18,0l24.69,1.06,38.58.44c4.27.05,8.34.42,12.47.32l28.65-.69ZM334.71,365.59c0-.28-.22-.5-.5-.5s-.5.22-.5.5.22.5.5.5.5-.22.5-.5ZM336.71,366.59c0-.28-.22-.5-.5-.5s-.5.22-.5.5.22.5.5.5.5-.22.5-.5ZM346.14,372.64c-2.44-1.88-4.38-5.66-8.19-3.79,3.61,2.64,6.92,3.53,9.65,6.65,1.64-.92,1.38-1.98.58-2.4-.37-.19-1.45,0-2.05-.46ZM611.41,369.84c-1.84-2.13-5.89,1.41-4.48,3.5,1.36-1.41,4.26-2.04,4.48-3.5ZM604.43,374.58c0-.28-.22-.5-.5-.5s-.5.22-.5.5.22.5.5.5.5-.22.5-.5ZM350.28,375.49c-.24.66.66,1.41.93,1.59s1.17.24,1.43-.52c.15-.44-2.44-.83-2.36-1.07ZM602.07,375.58c0-.35-.28-.63-.63-.63s-.63.28-.63.63.28.63.63.63.63-.28.63-.63ZM358.13,378.41c-1.08-2.28-3.3-1.52-4.46-.84,1.73.49,2.49,2.42,4.46.84ZM597.3,378.47c1.82-.75.71-1.61-.24-1.41-.35.07-.66.47-1.53,1.52-.3.36.57.39,1.77-.1ZM593.48,379.69c-.51-1.07-1.54-.46-2.53-.63-1.07-.18-1.93.17-1.41,2.06,1.52.15,2.2-1,3.94-1.43ZM553.24,383.76l-116.15-1.1-62.29-.78c-4.53-.06-8.48-1.94-13.26-1.53,2.96,1.54,6.41,2.93,10.07,2.79,12.85-.52,24.75.47,37.69.48l143.94.14ZM586.76,380.98c-2.57-.14-2.87,1.07-.54,1.23,1.15-.13,1.59-.66.54-1.23ZM582.54,382.55c-7.1-.8-13.62-.84-20.15.03,7.1.8,13.62.84,20.15-.03Z" fill="rgb(13, 25, 45)"/>
        <path d="M953,246.46c0,.43.29,1.08-.02,1.27-.33.2-1.31.86-1.99.74-7.46-1.25-14.4-.88-21.82-.3l-12.01.93-26.95.63-12.07.78-27.94,1.2c-2.54.11-4.28,1.12-7.1.86-10.8-1.03-21.38-.35-31.75-.36.58-.36-.04-2.11-1.18-2.11l-42.92-.07-65.92.65-71.86.36c-3.33.02-5.69-1.81-8.22-2.02-3.86-.33-7.19,1.22-11.45-.32-5.17-1.87-11.63-2.1-17.03-1.06-3.04.59-5.57-.17-8.25.09-10.17.96-20.38-.72-32.16-1.02l-22.78-.59c-13.96-.36-9.74-4.9-18.8-.35-4.31,2.17-28.32.74-28.92.83-4.34.63-8.22,1.2-12.53-.11-1.83-.56-3.78.71-5.79.72l-72.78.28c-23.92.09-4.68,3.33-33.22,3.29l-31.18-.05c-8.03-.01-15.53,1.49-23.75-.24-3.98-.83-22.64,2.05-32.88-.21-.91-.2-2.45.5-3.1.86-.7.38-.72,1.61-.77,2.64l-72.51-.16-43.06-1.52c-5.11-3.37,14.37-2.42,12.98-2.47,10.66.38,21.2.4,32,.08l26.16-.76c4.62-.13,9.36-.66,13.72-.83,5.19-.19,6.63-3.17,9.98-5.58,2.18-1.57,11.7-1.84,15.83-10.19,4.24-1.43,8.1-2.03,11.47-5.76,3.16-3.48,9.66-4.15,13.48-7.14,4.49-3.51,9.54-4.87,14.78-1.56l3.52-4.35h14.18c2.89,3.7,5.43,4.24,10.05,3.89,7.39-.56,15.34,1.08,22.8-.76,3.62-.9,7.54-2.24,11.38-1.32,4.24,1.02,6.35-1.4,9.46-2.55,5.43-2.01,9.54-4.59,12.15-10.15,3.41-7.26,8.75-2.71,12.56-9.09.87-1.46-1.58-4.13-1.07-5.63,1.45-4.29,8.34-3.15,11.83-4.49l6.19-2.36c7.04-2.69,16.21-2.03,23.95.2l7.83,2.25c2.82,4.71,8.38,7.29,12.96,9.81,3.84,2.11,5.89,5.17,11.41,3.45,2.08-.65,5.21,2,7.64,1.4,15.02-3.7,20.18,2.92,23.18-7.88,1.5-5.39,4.33-9.22,10.11-11.29-.51-2.04-2.51-2.91-4.62-2.91l-135.41-.13c-3.03,0-5.24-.16-8.17-.25l-15.9-.48c-8.39-.25-16.61-.87-24.87-.7-10.78.22-20.52-1.73-31.11-1.81l-54.48-.38c-1.2,0-2.53,1.5-3.75.83-.66-.36-2.17-.33-1.74-1.87,5.66-4.4,12.88-6.04,19.22-9.08.48.66.67,1.35,1.57,2.25.73-3.95,3.45-2.29,5.36-2.94,2.01-.69,3.01-3.59,5.6-3.4s4.96-.33,6.35,2.17c.46.82,2.14.94,2.94.99,1.74.12,3.67.19,4.99-1.06h2c-2.56,3.41,12.07,2.06,9.99,1,.63-.1,1.37,0,2,0,.32.24.68.45,1,0,6.31,1.84,13.06.45,20.03,1.13,5.61.55,10.71.87,15.93.87-.07.77.91,1.02,1.95,1.02h18.08c1.03,0,2.03-.26,1.95-1.02,5.4,0,10.67.45,16.56.52l86.85,1.02,60.5.85-42.11,1.09,30,.64c.46,1.54-1.16,1.56-1.85,3.49,2.61-.1,5.28,3.27,8.15,3.29l48.76.3c1.39-1.17,1.94-3.51,3.07-3.86,1.39-.43,3.74-.21,5.17.27,2.91.96,3.65-3.11,5.39-3.85,5.42-2.33,11.46.67,17.35-1.44l-47.1-.82,58.53-1.08,39.96-.97,22.95-.95c10.1-.42,20.65-.27,29.4-4.71l.04-.9,39.02,16.2,76.51,20.4c21.4,5.71,41.81,11.81,62.85,18.29l4.92,1.52c23.52,7.24,46.2,16.09,68.47,26.64,4.14,1.96,7.52,3.88,9.93,7.21ZM614.96,203.75c6.35-3.88,20.77-9.81,22.79-12.09,3.45-3.9,7.81-4.15,11.64-6.34,4-2.28,6.28-3.45,11.04-3.75l26.73-1.69c-.69.04,14.68-3.33,19.2-2.92s9.23.13,12.48-4.48c-12.77-.12-24.9-.56-37.35.26l-16.05,1.05c-6.08.4-11.49.29-17.29.43l-33.34.79-24.39.58c-5.05.12-9.77.88-14.97.65-3.95-.18-7.87-.66-11.55,2.14,3.6,2.35,7.85,1.61,11.38,2.06,7.29.93,8.9,7,10.78,12.67,3.52,10.57,19.06,16.66,28.91,10.65Z" fill="rgb(80, 90, 107)"/>
        <path d="M191.81,305.14c-13.06-1.1-26-4.55-38.81-7.07.11-.55-.6-2.32-1.84-2.31-7.2.03-13.76-4.43-20.25-2.5-.27.08-.73-.03-1.01-.09.29-1.2-.97-2.37-2.52-2.55-5.15-.61-9.63-2.1-14.66-3.29-21.02-5-41.59-9.8-62.34-16.29-2.88-.9-5.24-1.81-7.8-3.26-.09.58-28.1-5.15-22.23-8.73,2.45,2.52,5.42,2.63,8.53,1.21,6.29-2.88,10.24.78,16.89,1.09,6.06,8.44,10.38,3.05,25.01,6.41,4.17.96,9.96,1.39,13.47,3.37,4.81,2.71,7.33,4.25,13.51,2.75,3.75-.91,9.84,3.74,14.05,3.08s6.31-.09,9.84,1.46c8.57,3.75,16.05-.56,32.04,3.99,5.76,1.64,11.14,2.16,16.9,3.23,4.44.82,8.22,2.25,12.85,2.3l21.46.25c10.29.12,6.31,1.22,18.29,3.99,5.75,1.33,10.88,3.38,17.06,3.52,3.6.08,7.86.99,10.51,3.56,3.85,3.74-14.8,3.9-20.38,5.71-2.92.95-5.13,2.7-8.75,1.47-.7-.24-2.39-.1-2.74.42-2.27,3.39,10.02,11.42,11.33,13.82-3.6-.91-6.16-3.74-9.49-5.69l-7.05-4.12c-7.99-4.67-14.97-5.15-21.9-5.73Z" fill="rgb(58, 70, 88)"/>
        <path d="M482.46,61.52l27.19,1.07c39.83,1.57,79.36,3.99,117.98,11.05-.23,1.65-1.2,1.61-3.29,1.61l-177.63.33-67.05-.19h-4.99l-42.13-.22c-.5-.53.27-1.8,1.18-1.8l28.43-.15c10.88-.06,21.58,1.05,32.53-.65,1.35-1.51,0-4.79-.09-6.34,1.6-.04,3.47-1.2,5.07-.22.58.36.63,1.62,1.49,1.5.72-.1,1.2,0,1.52-.6.27-.5.42-1.03.09-1.5,22.03-1.87,44.14-2.89,66.8-3.65,2.38-.08,4.52.3,5.83-1.33-.01,2.15,1.25,3.11,3.68,2.91,1.09-.09,2.59-.64,3.41-1.8Z" fill="rgb(116, 130, 149)"/>
        <path d="M665.04,121.66c7.38,12.56,16.62,23.69,26.26,34.54l-.04.9-3.91.2c-.55-.65-1.27-1.13-2.08-1.39,1.86-1.24-8.15-9.77-8.02-6.71-.62.05-1.31-.24-1.93-.15l.16-1.45,1.28-.5c.36-.14.71-.91.39-1.14-1.76-1.23-11.82,2.05-17.77,1.36.77-1.63-6.93-.75-10.9-1.32l-3.02-6.76c-.52-1.16-.15-2.58-.6-3.94-.31-.93-1.61-.5-2.46-1.03-3.06-1.91-2.98-6.09-4.7-9.26-2.83-5.23-5.78-9.81-7.56-15.53-2.07-6.65-6.43-12.03-9.72-17.66,1.14-.28,2.87-.48,3.03-1.95.11-1,.07-2.15-1-2.95-.63-.47-2.55.19-3.25-2.12l24.84-.64c.34,0,.39-.62.34-.79,1.71-.72,4.78,8.21,5.21,10.03-2.87-.93-1.19,13.2.77,12.25,1.89-1.14,1.71-3.14,2.22-5.38,2.71,2.96,2.84,6.79,4.16,10.02-1.17-2.89,8.51,14.43,8.3,11.36ZM626.21,97.23l-1.09-2.79c-1.09.09-1,1.43-.25,1.91.31.2.67,1.08,1.34.88Z" fill="rgb(58, 70, 88)"/>
        <path d="M221.82,175.43c1.75,3.28,5.96,6.03,2.95,10.38-.69,1-3.22,1.72-4.68,1.14-4.18-1.67-6,.84-9.15,2.51-3.93,2.09-9.66.54-14.1.16-4.5-.38-8.9,3.65-12.86,3.53-8.35-.25-14.77,3.2-22.63,4.96-7.71,1.72-16.53,1.24-22.44,8.46-21.06,1.26-14.97,5.45-25.31,7.77l-11.92,2.67c-9.89,2.21-19.27,4.54-28.66,8.15-1.57.6-3.98-.51-5.24.66-4.09,3.77-9.28,4.35-14.11,6.08-13.04,4.65-4.51-4.01-18.3,3.5-2.11,1.15-3.62,2.19-5.78,2.16.02-1.41.87-2.29,1.3-3.35,2.02-.58,4.02-2.59,6.49-3.6,29.08-11.84,57.98-21.83,88.41-30.21l88.8-24.46c2.71-.75,5.07-.93,7.24-.52Z" fill="rgb(80, 90, 107)"/>
        <path d="M310.52,84.27l37.18.11h6.99c-2.46,2.89-13.28-1.35-14.52,3.21.82,1.6,2.69,1.69,3.54,2.78-1.97-.31-4.14,1.44-4.99,3-2.66,1.14-3.5,4.29-4.77,7.18l-4.23,9.65c-2.19,5-4.02,9.56-6.99,14.14-1.7,2.61-1.45,6.32-3.98,7.98-.26-1.67,1.27-2.66.73-5.18-7.35,6.98-2.92,6.15-12.41,9.52-2.16.77-13.78,6.67-15.21,5.07-.51-.57-.82-2.05-1.66-2.71-2.3-1.79-4.84-2.72-6.44-4.78l8.1-11.7c-.2,1.54,1.43.67,2,.4s1.59-.77,1.69-1.71c.74-6.94,13.7-27.16,11.73-26.24l2.35-1.09c.3-.14-1.85-.87-1.62-1.61.65-2.1,2.52-4.06.84-5.87.4-.86.72-1.81,1.7-2.16Z" fill="rgb(13, 25, 45)"/>
        <path d="M665.04,121.66c.21,3.07-9.47-14.25-8.3-11.36-1.31-3.23-1.45-7.06-4.16-10.02-.5,2.25-.33,4.24-2.22,5.38-1.97.95-3.64-13.18-.77-12.25-.43-1.83-3.5-10.75-5.21-10.03-1.3.55-3.91-.26-4.99-1,.76.02,1.91.64,2-1.19-7.13.85-13.47-.38-20.6-.41l-107.19-.49c-1.38,0-1.24-1.27-1.08-1.91l62.99-.62-107.95-.38c-16.6-.06-28.21,1-43.95,1,.11-.43-.34-.94-1.1-.95l-65.93-.28c5.48-1.88,10.67-.1,16.13-.86,1.04.12,2.03-.09,1.96-.9h4c-.04,1.17,1.04,1.17,1,0l67.05.19,177.63-.33c2.09,0,3.06.03,3.29-1.61,10.37-.88,18.22,6.24,22.49,15.87,4.9,11.04,9.58,21.75,14.92,32.15ZM591.35,78.04c-2.85-.82-16.99-1.78-14.78,1.63,5.2-2.09,9.88-.75,14.78-1.63ZM652.49,98.37c0-.61-.5-1.11-1.11-1.11s-1.11.5-1.11,1.11.5,1.11,1.11,1.11,1.11-.5,1.11-1.11Z" fill="rgb(13, 25, 45)"/>
        <path d="M318.73,132.33c.2,1.3-.1,2.68,0,4,.47,6.31,9.67,4.99,12.99,4.99h21.98c3.75,1.31,8.29.03,12.12.94.86.8.64,3.07,1.81,3.82,4.18.67,24.22-.11,24.97.77.26.3.06,1.02.06,1.47l-10.05-.02c-1.04,0-2.02.23-1.94,1.02h-4c.06.21.21-1.92-.28-1.92l-45.6-.1c-.73,0-1.2.69-1.07,1.05-16.11-.04-37.22-.57-53.53-3.18-1.04,5.7-9.84,9.84-8.97,10.99l1.42,1.88.2,2.34c-1.39-2.5-3.72-1.97-6.35-2.17s-3.58,2.71-5.6,3.4-4.63-1.01-5.36,2.94c-.89-.89-1.09-1.58-1.57-2.25,4.32-2.07,9.76-4.04,13.95-6.97,8.13-5.68,14.53-13.43,19.82-21.08,1.6,2.06,4.14,3,6.44,4.78.84.65,1.15,2.14,1.66,2.71,1.43,1.61,13.05-4.3,15.21-5.07,9.5-3.37,5.07-2.54,12.41-9.52.54,2.52-.99,3.51-.73,5.18Z" fill="rgb(58, 70, 88)"/>
        <path d="M512.53,78.39c-.16.64-.3,1.9,1.08,1.91l107.19.49c7.12.03,13.47,1.26,20.6.41-.09,1.83-1.24,1.21-2,1.19h-22.98c-9.68-.53-19.32,1.07-29.53-.8l-104.32-.04-95.36.37-39.51.47c-5.96.07-12.1-.43-18.38.56s-12.67.21-18.75.39c.25-.42.9-.67,1.1-1.11,2-.75,4.41-1.17,7.02-.81,3.28.46,6.04-.66,9.11-.85,6.9-.44,13.46-.15,19.91-.18l98.29-.43c7.58-.03,14.55-1.06,21.58-.57,5.23.36,10.4-.7,15.97-.75l28.99-.25Z" fill="rgb(0, 2, 20)"/>
        <path d="M482.33,57.41c-.76-.17-.82.71-.72,1.36.06.4.16.8.71.64l.14,2.11c-.82,1.17-2.32,1.71-3.41,1.8-2.44.2-3.7-.76-3.68-2.91l.34-56.76c.01-2.2,1.89-3.65,3.37-3.65s3.15,1.27,3.16,3.56l.09,53.85ZM479.84,62.07l.85-59.64c-2.07-1.48-2.88-.14-1.65,1.6,2.17,16.93-3.18,41.27.8,58.05Z" fill="rgb(13, 25, 45)"/>
        <path d="M394.58,66.22c.09,1.55,1.44,4.84.09,6.34-10.95,1.7-21.64.59-32.53.65l-28.43.15c-.91,0-1.67,1.27-1.18,1.8-2.27-.01-3.81-.41-5.85-.97-.01-.39.44-1.23,1.36-1.35,22.37-2.98,44.38-6.04,66.53-6.63Z" fill="rgb(80, 90, 107)"/>
        <path d="M326.69,74.2c2.04.57,3.58.96,5.85.97l42.13.22c.07.81-.91,1.02-1.96.9-5.45.76-10.65-1.02-16.13.86l65.93.28c.76,0,1.21.52,1.1.95h-69.84c-2.05,0-4.53,1.83-6.08,1-1.42-1.6-2.86-.14-5.03-.1l-23.95.42c-1.27.02-2.45-.85-2.52-1.7-.04-.46.42-1.09.55-1.58,2.89-1.22,6.69-3.13,9.93-2.22ZM352.65,77c-3.97-1.01-6.51-.97-9.05-.05,3.45.8,6.24.66,9.05.05Z" fill="rgb(0, 2, 20)"/>
        <path d="M892.02,275.37c-27.91,8.61-56.33,15.28-84.8,21.79-.42-2.04,1.61-2.07,3.46-2.51l53.72-12.95c2.42-2.7,5.62-1.77,8.66-2.64l9.96-2.83c3.19-.9,6.41-3.18,9-.87Z" fill="rgb(13, 25, 45)"/>
        <path d="M291.83,122.55l16.99-36.12c1.68,1.81-.19,3.77-.84,5.87-.23.74,1.92,1.47,1.62,1.61l-2.35,1.09c1.97-.91-10.99,19.3-11.73,26.24-.1.94-1.11,1.44-1.69,1.71s-2.2,1.13-2-.4Z" fill="rgb(58, 70, 88)"/>
        <path d="M347.7,79.39v1c-6.45.03-13.01-.26-19.91.18-3.07.19-5.83,1.31-9.11.85-2.6-.37-5.02.06-7.02.81,1.05-2.32,2.64-4.77,5.09-5.8-.13.49-.6,1.12-.55,1.58.08.86,1.25,1.73,2.52,1.7l23.95-.42c2.17-.04,3.61-1.5,5.03.1Z" fill="rgb(58, 70, 88)"/>
        <path d="M347.7,82.38v2l-37.18-.11.04-.94c6.09-.18,12.32.62,18.75-.39s12.43-.49,18.38-.56Z" fill="rgb(80, 90, 107)"/>
        <path d="M153.01,298.07c-7.4-1.45-15.06-2.18-22.08-4.81,6.49-1.92,13.05,2.53,20.25,2.5,1.23,0,1.94,1.76,1.84,2.31Z" fill="rgb(13, 25, 45)"/>
        <path d="M402.74,65.39c.34.48.18,1-.09,1.5-.32.6-.8.51-1.52.6-.86.12-.91-1.14-1.49-1.5.51-1.11,2.09-.52,3.09-.61Z" fill="rgb(80, 90, 107)"/>
        <path d="M805.22,297.3c-.33.97-1.42.67-2.19.82-.36-.41-.17-.85.16-1.43.21-.38.61-.74,1.22-.36.3.18.6.56.81.97Z" fill="rgb(13, 25, 45)"/>
        <path d="M482.32,59.41c-.55.16-.65-.23-.71-.64-.1-.65-.04-1.53.72-1.36v2Z" fill="rgb(116, 130, 149)"/>
        <path d="M578.76,348.09l-224.63.12-28.91-2.61c-7.19-.65-20.22-9.17-26.27-5.08l-9.81-6.69c1.77-2.72,3.95.86,5.14.55,14.52-3.75,12.61.68,26.02-2.3l329.44.11,10.89.69c-.51,4.09-3.79,5-7.16,5.58l-22.04,3.73c-4.44.75-8.97.26-11.97,4.41-7.16-1.24-13.95.87-20.89.51s-12.16.98-19.8.98Z" fill="rgb(0, 2, 20)"/>
        <path d="M532.12,314.27c-4.86-.02-8.31,1.63-12.81.27-2.24-.68-16.5,1.29-25.82-.02-6.02-.85-11.85.47-17.93.46l-68.56-.11-18.8-.1c-6.65-.03-13.47-1.29-20.08-.18-7.32,1.23-14.17.02-21.46-.15-3.8-.09-7.12.18-11.05.07l-30.64-.91-15.72-1.01-33.37-.73c-1.42-.03-1.47-2.4-.66-2.83.63-.33,1.57-1.65,2.81-1.67l34.58-.55c4.94-.08,9.13-.62,14.21.04,5.13.67,10.46-1.83,15.63-.39,3.85,1.07,7.42,0,11.33-.06l50.09-.76,29.61-.73c4.07-.1,11.07-1.3,16.48-.08,8.82,1.98,19.66-1.48,30.68-.6l15.88,1.27c9.95.79,19.2.21,28.98-.01,7.11-.16,13.78,2,20.9.12,2.78-.73,6.94,2.37,9.9,1.37,4.07-1.37,7.32.08,11.33.07l82.6-.12c3.42,0,5.79-.85,9.39-.24,3.71.63,7.92,1.11,11.84,1.14l44.82.33c.2,0,21.33.41,14.39,3.8-12.1-.23-26.07,5.32-39.83,2.81-3.52-.64-6.24.04-9.61.2-13.04.63-25.49-.21-38.63-.27l-90.51-.44Z" fill="rgb(0, 2, 20)"/>
        <path d="M490.63,366.96l-28.65.69c-4.13.1-8.2-.27-12.47-.32l-38.58-.44-24.69-1.06c-5.97-.26-12.12,1.22-18.18,0-14.31-2.89-30.87.54-30.9-5.99.57-2.18,6.13-2.19,8.43-1.85,6.17.93,11.31-.63,17.06-.7l60.55-.7c17.2-.2,33.58-.08,50.93.03l118.93.77,24.77.89c-2.03,3.6-5.16,3.01-7.53,4.88l-25.67.31-33.59.98c-11.6.34-14.27,3.22-33.38,1.32-5.94-.59-21.05,1.03-27.03,1.18Z" fill="rgb(0, 2, 20)"/>
        <path d="M884.14,256.2c.02.43.16,1.07-.04,1.45-.32.59-1.03.48-1.92.49l-53.67.52-86.14,1.2c-3.42.05-5.72.6-9.48.6l-159.95.21-315.54.05-103.46-.34c-1,0-1.72-.38-1.99-.74-.25-.34-.05-1.03-.05-1.45h33.96c1.24,1.68,4.75,1.68,5.99,0,5.73-.68,11.34.69,17.62.7l136.22.3h187.8l84.78-.18,10.13-.82c-.07.77.92,1.02,1.96,1.02h26.06c1.04,0,2.04-.25,1.96-1.02h8.99c-.07.77.92,1.02,1.95,1.02h23.07c1.04,0,2.03-.26,1.95-1.02h26.97l71.51-.54c27.23-.21,53.92,1.08,80.33-1.46,3.6-.35,7.37,0,10.99,0Z" fill="rgb(0, 2, 20)"/>
        <path d="M144.99,256.09c.93-.04,2.01-.08,2.92.11,2.19.46,4.87-.67,6.99,0,2.6.83,4.71.9,8.14.92l152.03.57,30.62.51v1l-136.22-.3c-6.28-.01-11.89-1.38-17.62-.7-1.95.23-4.03,0-5.99,0h-47.95v-2c2.36.02,4.71,0,7.07-.11Z" fill="rgb(80, 90, 107)"/>
        <path d="M553.24,383.76l-143.94-.14c-12.94-.01-24.84-1-37.69-.48-3.66.15-7.12-1.24-10.07-2.79,4.77-.41,8.73,1.47,13.26,1.53l62.29.78,116.15,1.1Z" fill="rgb(58, 70, 88)"/>
        <path d="M137.92,256.2v2c-10.38,0-20.59-.39-31.53-.48l-84.2-.71c-2.26-.02-4.73-.28-6.26-1.89l72.57.59,49.42.49Z" fill="rgb(58, 70, 88)"/>
        <path d="M636.11,354.77c-2.13.85-3.69,4.56-6.52,3.23-2.36-1.11-3.71-4.18-4.33-6.69,4.58-1.29,8.6,0,13.2-.02,2.28-.01,4.54-1.79,6.3.87-2.55,1.65-5.45,1.33-8.65,2.61Z" fill="rgb(58, 70, 88)"/>
        <path d="M892.92,255c1.02-.07,2.18.09,3.21.2,6.34.65,13.08-1.34,18.98,1h-30.97c-3.62,0-7.39-.35-10.99,0-1.01-1.61,15.82-.93,19.77-1.2Z" fill="rgb(80, 90, 107)"/>
        <path d="M300.52,347.12c-3.91-1.47-6.87-3.75-9.65-6.76,4.49-.13,7.72,2.79,9.65,6.76Z" fill="rgb(58, 70, 88)"/>
        <path d="M582.54,382.55c-6.53.87-13.05.83-20.15.03,6.53-.87,13.05-.83,20.15-.03Z" fill="rgb(58, 70, 88)"/>
        <path d="M61.09,259.68c-4.87.88-9.75.83-15.17.04,4.87-.88,9.74-.83,15.17-.04Z" fill="rgb(58, 70, 88)"/>
        <path d="M9.34,257.04c1.6.31,2.91.72,4.73,1.72-2.27,1.13-5.79.12-7.15-2.7.3-1.19,2.69-1.16,4.16-.55l-1.74,1.54Z" fill="rgb(58, 70, 88)"/>
        <path d="M346.14,372.64c.6.46,1.68.27,2.05.46.79.42,1.06,1.48-.58,2.4-2.73-3.12-6.04-4.01-9.65-6.65,3.8-1.87,5.75,1.91,8.19,3.79Z" fill="rgb(58, 70, 88)"/>
        <path d="M650.34,350.16c-.99.08-1.15.82-1.52.95-.5.18-1.29-.06-1.46-.54-.47-1.31,4.03-3.79,2.54-3.49.83-.17,1.44.15,1.46.55.07,1.09.44,2.4-1.03,2.52Z" fill="rgb(58, 70, 88)"/>
        <path d="M705.32,329.71c-1.89.78-4,.73-6.06-.05l6.18-1.71c.98.09,1.01,1.22-.12,1.76Z" fill="rgb(58, 70, 88)"/>
        <path d="M306.5,350.86c-1.49-.89-3.4-1-5.34-2.84,2.17-2,3.91-.19,5.34,2.84Z" fill="rgb(58, 70, 88)"/>
        <path d="M611.41,369.84c-.23,1.47-3.13,2.09-4.48,3.5-1.41-2.1,2.64-5.63,4.48-3.5Z" fill="rgb(58, 70, 88)"/>
        <path d="M358.13,378.41c-1.97,1.58-2.73-.35-4.46-.84,1.15-.68,3.37-1.44,4.46.84Z" fill="rgb(58, 70, 88)"/>
        <path d="M593.48,379.69c-1.74.43-2.42,1.58-3.94,1.43-.51-1.89.34-2.24,1.41-2.06.99.17,2.02-.44,2.53.63Z" fill="rgb(58, 70, 88)"/>
        <circle cx="694.34" cy="330.13" r="1.11" fill="rgb(58, 70, 88)"/>
        <path d="M586.76,380.98c1.04.56.61,1.1-.54,1.23-2.32-.16-2.03-1.36.54-1.23Z" fill="rgb(58, 70, 88)"/>
        <path d="M282.07,334.03c1.04.56.61,1.1-.54,1.23-2.32-.16-2.03-1.36.54-1.23Z" fill="rgb(58, 70, 88)"/>
        <path d="M709.63,327.04c1.04.56.61,1.1-.54,1.23-2.32-.16-2.03-1.36.54-1.23Z" fill="rgb(58, 70, 88)"/>
        <path d="M597.3,378.47c-1.2.49-2.08.47-1.77.1.88-1.04,1.18-1.44,1.53-1.52.95-.2,2.06.67.24,1.41Z" fill="rgb(58, 70, 88)"/>
        <path d="M350.28,375.49c-.09.24,2.51.64,2.36,1.07-.26.76-1.15.7-1.43.52s-1.17-.93-.93-1.59Z" fill="rgb(58, 70, 88)"/>
        <circle cx="601.43" cy="375.58" r=".63" fill="rgb(58, 70, 88)"/>
        <circle cx="730.3" cy="319.64" r=".63" fill="rgb(58, 70, 88)"/>
        <path d="M288.67,338.77c-1.52,1.02-2.97-.81-3.85-2.56,1.48.24,1.38,1.65,3.85,2.56Z" fill="rgb(58, 70, 88)"/>
        <circle cx="678.35" cy="332.62" r=".63" fill="rgb(58, 70, 88)"/>
        <circle cx="680.85" cy="331.62" r=".5" fill="rgb(58, 70, 88)"/>
        <circle cx="334.21" cy="365.59" r=".5" fill="rgb(58, 70, 88)"/>
        <circle cx="336.21" cy="366.59" r=".5" fill="rgb(58, 70, 88)"/>
        <circle cx="720.81" cy="324.63" r=".5" fill="rgb(58, 70, 88)"/>
        <circle cx="724.81" cy="322.63" r=".5" fill="rgb(58, 70, 88)"/>
        <circle cx="727.3" cy="321.13" r=".86" fill="rgb(58, 70, 88)"/>
        <circle cx="603.93" cy="374.58" r=".5" fill="rgb(58, 70, 88)"/>
        <circle cx="732.8" cy="317.64" r=".5" fill="rgb(58, 70, 88)"/>
        <circle cx="735.29" cy="316.14" r=".86" fill="rgb(58, 70, 88)"/>
        <path d="M230.75,171.37c-.43,1.54,1.08,1.51,1.74,1.87,1.22.66,2.55-.84,3.75-.83l54.48.38c10.59.07,20.32,2.03,31.11,1.81,8.27-.17,16.48.45,24.87.7l15.9.48c2.93.09,5.14.24,8.17.25l135.41.13c2.1,0,4.11.88,4.62,2.91-5.78,2.07-8.61,5.9-10.11,11.29-3,10.79-8.16,4.17-23.18,7.88-2.43.6-5.56-2.05-7.64-1.4-5.53,1.72-7.57-1.33-11.41-3.45-4.57-2.52-10.14-5.1-12.96-9.81l-7.83-2.25c-7.74-2.23-16.91-2.89-23.95-.2l-6.19,2.36c-3.5,1.34-10.39.2-11.83,4.49-.51,1.5,1.94,4.17,1.07,5.63-3.81,6.38-9.15,1.83-12.56,9.09-2.61,5.56-6.72,8.14-12.15,10.15-3.11,1.15-5.22,3.57-9.46,2.55-3.83-.92-7.75.42-11.38,1.32-7.46,1.84-15.41.2-22.8.76-4.62.35-7.16-.19-10.05-3.9h-14.18s-3.52,4.36-3.52,4.36c-5.25-3.31-10.29-1.95-14.78,1.56-3.82,2.98-10.32,3.65-13.48,7.14-3.37,3.72-7.23,4.33-11.47,5.76-4.12,8.34-13.65,8.62-15.83,10.19-3.35,2.41-4.79,5.39-9.98,5.58-4.36.16-9.11.69-13.72.83l-26.16.76c-10.8.31-21.34.29-32-.08,1.39.05-18.09-.9-12.98,2.47l43.06,1.52,72.51.16c1.3,0,2.59.41,3.87.55,2.44,3.12,6.52,1.07,10.1,1.04,11.36-.1,22.44-.7,33.59.23,2.73.23,20.95,1.83,20.31-1.2,2.85-.43,5.73.44,9,.73,2.54.22,4.71-.76,6.77-.76-.6.9.06,1.4,1.43,1.96l302.8-.58,65.58-.39c.99-.02,1.8-1.52,1.19-2.02l12.64-.03c1.55,1.38,3.89,1.3,5.38-.14l32.78-.04c-.04.2-.09.65-.14,1.71l-30.96,1.1h72.9c-6.04-4.19-12.43-.27-19.1-2.03l.23-1.71h17.11c10.38.01,20.96-.66,31.75.36,2.82.27,4.57-.75,7.1-.86l27.94-1.2,12.07-.78,26.95-.63,12.01-.93c7.42-.58,14.36-.95,21.82.3.68.11,1.66-.54,1.99-.74.31-.19.02-.84.02-1.27,9.79,4.95-18.9,14.19-21.49,15.32-13.19,5.71-26.37,9.54-39.49,13.59-2.59-2.3-5.81-.03-9,.87l-9.96,2.83c-3.04.86-6.24-.07-8.66,2.64l-53.72,12.95c-1.85.45-3.88.47-3.46,2.51-.65.15-1.35.04-2,.14-.2-.41-.51-.79-.81-.97-.61-.38-1.01-.02-1.22.36-.33.58-.52,1.02-.16,1.43l-48.65,8.97c-.81-.9-1.81-.8-3.05-.07l-13.87,8.23c.36-2.73,1.99-4.01,1.86-7.06-6.61-.03-12.03-2.78-18.08-3.77s-12,1.25-17.75-2.33c3.57-4.67,9.73-5.87,15.19-6.3,6.89-.54,13-3.03,19.78-3.46l13.84-.87,26.84-3.44c10.98-1.41,21.23-4.69,32.33-5.22,3.28-.16,6-1.53,8.99-2.41.64-.19,17.9.21,28.43-3.64,5.79-2.12,11.09-3.71,17.15-4.59,14.13-2.05,9.5-7.15,16.07-5.29,4.81,1.37,7.59-1.46,10.89-3.78l5.71-4.01c3.39-2.38,17.36-1.2,16.41-2.9-5.9-2.34-12.64-.34-18.98-1-.07-.7.01-1.52-.22-2.38-.19-.66-1.33-.75-2.14-.39-.76.34-.82,1.72-.84,2.56-3.95.27-20.78-.41-19.77,1.2-26.42,2.54-53.11,1.25-80.33,1.46l-71.51.54c.11-.37-.27-1-1.21-1h-186.59s-8.16,1.06-8.16,1.06l-179.64-.06-30.62-.51-152.03-.57c-3.43-.01-5.54-.09-8.14-.92-1.6-1.71-5.39-1.71-6.99,0-.91-.19-1.99-.15-2.92-.11-6.97-2.23-22-.17-32.75-1.5-2.42-.3-4.35-1.87-7.31-1.73-10.06.45-19.91-.18-29.89,1.48-3,.5-4.96-1.72-7.39-1.8l-24.17-.83c-4.29-.15-8.37-1.04-12.69-1.16l-26.69-.75c-.98-.03-1.78-.75-1.3-1.55,1.53-3.01,24.46-13.62,28.09-14.04-.43,1.06-1.27,1.94-1.3,3.35,2.17.03,3.67-1.01,5.78-2.16,13.78-7.51,5.25,1.15,18.3-3.5,4.83-1.72,10.02-2.31,14.11-6.08,1.27-1.17,3.68-.06,5.24-.66,9.39-3.61,18.77-5.94,28.66-8.15l11.92-2.67c10.34-2.31,4.25-6.5,25.31-7.77,5.9-7.23,14.73-6.74,22.44-8.46,7.86-1.76,14.28-5.21,22.63-4.96,3.96.12,8.36-3.91,12.86-3.53,4.44.38,10.17,1.92,14.1-.16,3.15-1.67,4.96-4.19,9.15-2.51,1.46.58,3.98-.14,4.68-1.14,3.01-4.35-1.19-7.1-2.95-10.38.92-4.01,6.54-2.21,8.93-4.06ZM232.04,183.49c-.92,1.23.31,2.11,1.25,1.81.4-.13,1.15.3,1.52-.54.32-.72-.14-1.52-.55-1.48-.66.08-1.81-.34-2.22.2ZM932.74,253.32c-4.83-1.92-8.96-1.72-13.5-.11,4.76,1.69,8.91,1.54,13.5.11ZM933.18,256.68c-5.09-.79-9.63-.84-14.17.04,5.09.79,9.63.84,14.17-.04Z" fill="rgb(58, 70, 88)"/>
        <circle cx="683.85" cy="331.62" r=".5" fill="rgb(58, 70, 88)"/>
        <path d="M811.34,252.21h-17.11c-2.6,0-6.57-2.9-8.99,0-4.58.15-9.23-.49-13.95.93l-32.78.04c-1.18-1.51-4.37-1.59-5.38.14l-12.64.03-105.15.56-265.84.47c-2.07,0-4.24.98-6.77.76-3.28-.29-6.15-1.16-9-.73-4.39-1.04-9.03-1.1-14.07-1.11l-42.85-.05c-2.66,0-5.08.4-7.09,1.09-1.28-.14-2.57-.55-3.87-.55.05-1.03.07-2.25.77-2.64.65-.36,2.19-1.07,3.1-.86,10.24,2.26,28.9-.63,32.88.21,8.22,1.72,15.71.22,23.75.24l31.18.05c28.54.05,9.3-3.2,33.22-3.29l72.78-.28c2.01,0,3.96-1.28,5.79-.72,4.31,1.31,8.19.74,12.53.11.59-.09,24.61,1.34,28.92-.83,9.06-4.56,4.84-.01,18.8.35l22.78.59c11.78.31,21.99,1.99,32.16,1.02,2.68-.25,5.21.5,8.25-.09,5.4-1.04,11.87-.81,17.03,1.06,4.26,1.54,7.59,0,11.45.32,2.53.21,4.88,2.04,8.22,2.02l71.86-.36,65.92-.65,42.92.07c1.14,0,1.76,1.75,1.18,2.11Z" fill="rgb(116, 130, 149)"/>
        <path d="M614.96,203.75c-9.85,6.01-25.39-.08-28.91-10.65-1.89-5.67-3.5-11.74-10.78-12.67-3.53-.45-7.78.28-11.38-2.06,3.69-2.8,7.6-2.31,11.55-2.14,5.2.23,9.92-.53,14.97-.65l24.39-.58,33.34-.79c5.8-.14,11.2-.03,17.29-.43l16.05-1.05c12.46-.81,24.59-.38,37.35-.26-3.25,4.61-8.15,4.87-12.48,4.48s-19.89,2.96-19.2,2.92l-26.73,1.69c-4.76.3-7.04,1.46-11.04,3.75-3.83,2.19-8.2,2.44-11.64,6.34-2.02,2.28-16.44,8.21-22.79,12.09Z" fill="rgb(58, 70, 88)"/>
        <path d="M687.34,157.31l3.91-.2c-8.75,4.44-19.29,4.29-29.4,4.71l-22.95.95-39.96.97-58.53,1.08,47.1.82c-5.89,2.11-11.93-.89-17.35,1.44-1.74.75-2.48,4.81-5.39,3.85-1.44-.47-3.78-.69-5.17-.27-1.13.35-1.69,2.69-3.07,3.86l-48.76-.3c-2.86-.02-5.54-3.39-8.15-3.29.69-1.93,2.31-1.96,1.85-3.49l-30-.64,42.11-1.09-60.5-.85-86.85-1.02c-5.89-.07-11.16-.52-16.56-.52h-21.98c-5.22,0-10.32-.32-15.93-.87-6.96-.68-13.72.71-20.03-1.13h-1c-.63,0-1.37-.1-2,0-3.43.56-6.6-1-9.99-1h-2c-1.56.02-2.98-.6-4.77-1.08-.43,1.08-.21,1.65-.23,2.15-.8-.05-2.48-.17-2.94-.99l-.2-2.34c3.9-.3,7.89.68,12.1,1.05l10.98.98,12.11.96,40.39.71,85.89.93c36.54.4,72.37.48,108.9.02l77.9-.97,31.97-.95,15.53-.65c4.07-.17,7.94-.25,12-.94l10.96-1.88Z" fill="rgb(116, 130, 149)"/>
        <path d="M349.7,163.3c.08.77-.91,1.02-1.95,1.02h-18.08c-1.03,0-2.02-.25-1.95-1.02h21.98Z" fill="rgb(58, 70, 88)"/>
        <path d="M288.76,161.3c2.08,1.06-12.55,2.41-9.99-1,3.39,0,6.56,1.56,9.99,1Z" fill="rgb(58, 70, 88)"/>
        <path d="M276.77,160.3c-1.33,1.26-3.26,1.18-4.99,1.06.02-.5-.2-1.06.23-2.15,1.79.48,3.2,1.1,4.77,1.08Z" fill="rgb(58, 70, 88)"/>
        <path d="M290.76,161.3h1c-.32.45-.68.24-1,0Z" fill="rgb(58, 70, 88)"/>
        <path d="M720.49,253.34c.61.5-.19,2-1.19,2.02l-65.58.39-302.8.58c-1.37-.57-2.04-1.07-1.43-1.96l265.84-.47,105.15-.56Z" fill="rgb(80, 90, 107)"/>
        <path d="M721.31,258.2h-92.9l-10.13.82-84.78.18v-2h186.59c.94,0,1.32.63,1.21,1Z" fill="rgb(80, 90, 107)"/>
        <polygon points="533.5 257.2 533.5 259.2 345.7 259.2 345.7 258.2 525.34 258.26 533.5 257.2" fill="rgb(116, 130, 149)"/>
        <path d="M333.72,254.41c.64,3.03-17.58,1.43-20.31,1.2-11.16-.94-22.23-.34-33.59-.23-3.59.03-7.66,2.08-10.1-1.04,2.01-.69,4.43-1.09,7.09-1.09l42.85.05c5.04,0,9.68.07,14.07,1.11Z" fill="rgb(80, 90, 107)"/>
        <path d="M785.24,252.21c2.56,2.74,5.97,1.02,8.76,1.71,6.66,1.76,13.05-2.16,19.1,2.02h-72.9s30.96-1.09,30.96-1.09c.05-1.06.09-1.51.14-1.71,4.72-1.41,9.38-.78,13.95-.93Z" fill="rgb(13, 25, 45)"/>
        <path d="M932.74,253.32c-4.59,1.43-8.73,1.59-13.5-.11,4.54-1.61,8.66-1.82,13.5.11Z" fill="rgb(13, 25, 45)"/>
        <path d="M794.23,252.21l-.23,1.71c-2.79-.69-6.2,1.02-8.76-1.71,2.42-2.89,6.39,0,8.99,0Z" fill="rgb(80, 90, 107)"/>
        <path d="M933.18,256.68c-4.54.88-9.09.83-14.17.04,4.54-.88,9.09-.83,14.17-.04Z" fill="rgb(13, 25, 45)"/>
        <path d="M738.51,253.17c-1.49,1.44-3.82,1.52-5.38.14,1.01-1.73,4.19-1.65,5.38-.14Z" fill="rgb(80, 90, 107)"/>
        <path d="M896.13,255.2c-1.02-.11-2.19-.27-3.21-.2.02-.85.08-2.22.84-2.56.81-.36,1.95-.28,2.14.39.24.85.16,1.67.22,2.38Z" fill="rgb(13, 25, 45)"/>
        <path d="M154.9,256.2c-2.12-.67-4.8.46-6.99,0,1.6-1.71,5.39-1.71,6.99,0Z" fill="rgb(13, 25, 45)"/>
        <path d="M232.04,183.49c.41-.54,1.55-.13,2.22-.2.41-.05.87.76.55,1.48-.37.84-1.12.41-1.52.54-.94.29-2.17-.58-1.25-1.81Z" fill="rgb(80, 90, 107)"/>
        <path d="M378.67,75.39h1c.04,1.17-1.04,1.17-1,0Z" fill="rgb(0, 2, 20)"/>
        <path d="M616.42,82.38c-2.14,0-4.96.98-8.09,1.24l-14.1,1.18,8.06,4.39c5.38,2.94,12.53-.2,18.14,2.64,3.28,5.63,7.65,11.01,9.72,17.66,1.78,5.72,4.73,10.3,7.56,15.53,1.72,3.18,1.65,7.36,4.7,9.26.1.65.1,1.81-.42,2.96-.25.55-.72,1.1-1.67.34.31-4.3-2.25-8.02-4.14-11.97l-11.32-23.6c-1.85-3.87-3.24-9.04-8.22-10.03-7.86-1.56-15.97-.35-23.95-.89-3.68-.25-18.46-3.03-16.83,5.23.7,3.56.77,6.89,1.63,10.37l6.82,27.48c1.15,4.62,4.39,5.7,8.14,6.34,3.44.59,7.59,1.96,10.99.07l12.18.04c-.28,1.62-1.85,1.73-4.18,1.77.45,2.44,2.08,1.52,4.35.91s2.31,2.56.11,2.03c-3.43-.81-5.96-.12-8.64.82s-5.32-.98-7.87.98l39.94.05c3.23,0,6.28-1.59,9.17-1.18,3.97.57,11.66-.31,10.9,1.32-4.87-.56-9.72.54-14.89.78l-20.02.95-55,.54-2,.03c-16.16.25-32.17.58-48.99.47l-71.88-.47c-1,0-2-.28-3-.06-.77-.23-1.7-.26-1.85-1.27,4.56-.97,9.41,1.38,14.61-.8-3.18-2.83-6.48.25-9.87-1.04-1.57-.59-.97-2.83-.96-3.95,1.74-.71,3.71-.74,6.1-.69,20.81.36,41.1.27,61.82-.45,10.21-.36,2.48-16.1,2.42-28.95-.01-2.33-.21-3.14-.67-5.52l-2.63-13.64c-.47-2.42-4.3-3.84-7.12-3.81-12.62.14-24.94-.66-37.37.43-15.29,1.34-21.95-2.04-22.83,5.26l-4.28,35.56c-.42,3.51-1.11,6.77,1.63,9.63-.96.09-2.28.19-2.85-.63-.51-.73-1.39-2.13-1.22-3.46l3.26-25.9c.41-3.24.56-5.98.49-9.13-.05-2.18,2.16-4.84,1.42-7.8l5.25-4.85,29.51-.83-19.76-2.5,23.96-1.59-62.03-.25h-34.96l-2.93.14-26.09-.21c-1.01,0-1.6.66-1.95,1.06h-6.99v-2l39.51-.47,95.36-.37,104.32.04c10.2,1.87,19.85.27,29.53.8ZM449.59,143.82c0-.28-.22-.5-.5-.5s-.5.22-.5.5.22.5.5.5.5-.22.5-.5ZM462.69,147.32c0-.61-.5-1.11-1.11-1.11s-1.11.5-1.11,1.11.5,1.11,1.11,1.11,1.11-.5,1.11-1.11ZM596.44,146.82c0-.28-.22-.5-.5-.5s-.5.22-.5.5.22.5.5.5.5-.22.5-.5Z" fill="rgb(116, 130, 149)"/>
        <path d="M329.72,148.35c8.33.02,16.9-.59,25.53.47,7.39.91,14.43.5,21.42.5h4l54.94.13c2.42,0,3.94-.35,6.14-1.13.15,1,1.08,1.04,1.85,1.27.47.14.83.92,1.47.74.55-.15,1.65.25,1.52-.68l71.88.47c16.83.11,32.83-.22,48.99-.47-.17.8.74.65,1.34.61.45-.03.83-.05.66-.64l55-.54,20.02-.95c5.17-.25,10.02-1.35,14.89-.78,5.95.69,16.01-2.59,17.77-1.36.33.23-.02,1-.39,1.14l-1.28.5c-5.56,1.15-11.42,1.87-17.56,2.23l-25.51,1.48h-34.96c-3.38,0-6.62.59-9.99,1-1.24-1.68-4.75-1.68-5.99,0h-166.83c.14-.52-.2-.89-.53-1-.85-.3-1.65.21-1.47,1-12.16,0-24.27-.74-37.04.55l74.48.97c12.23.16,23.8.48,35.49.48h38.96c-3.77,3.21-8.2-2.07-9.44,4.27-7.02,3.27-14.16.32-21.63,2.56l85.91-.17c-8.14-4.26-16.21.29-24.45-2.58l7.65-1.71c-7.14-2.32-20.33-.17-25.05-2.38,14.73-.39,29.59.72,44.62-.44,5.39-.41,10.32-.56,15.32-.56h27.97c1.66,0,4.05.64,4.99-1h2c14.05,0,18.51-1.03,31.06-1.06,4.16-.01,8.17-1.62,11.85-2.2.62-.1,1.3.2,1.93.15-.1,3.78,3.26,3.36,3.04,5.59-.32,3.2-6.14.25-7.04,2.13,4.51,1.4,8.15-.61,12.01-1.01.81.26,1.53.74,2.08,1.39l-10.96,1.88c-4.06.69-7.93.77-12,.94l-15.53.65-31.97.95-77.9.97c-36.53.46-72.36.38-108.9-.02l-85.89-.93-40.39-.71-12.11-.96-10.98-.98c-4.21-.38-8.2-1.36-12.1-1.05l-1.42-1.88c-.87-1.15,7.92-5.29,8.97-10.99,16.31,2.61,37.42,3.15,53.53,3.18ZM372.36,151.86l-58.71-.29,33.6,1.33c8.32-.04,16.83,2.12,25.11-1.04ZM511.84,156.22c-2.57-.14-2.87,1.07-.54,1.23,1.15-.13,1.59-.66.54-1.23Z" fill="rgb(0, 2, 20)"/>
        <path d="M648.48,146.01c-2.89-.42-5.94,1.18-9.17,1.18l-39.94-.05c2.55-1.95,5.3-.08,7.87-.98s5.22-1.63,8.64-.82c2.2.52,2.13-2.63-.11-2.03s-3.9,1.53-4.35-.91c2.33-.03,3.9-.15,4.18-1.77l1.81-.3c-.08.78.91,1.01,1.95,1.02l15.12.1c1.74.01,1.58-1.52,1.91-2.12,1.3-.46,2.84-.74,3.91-1.74.95.76,1.42.21,1.67-.34.52-1.15.52-2.31.42-2.96.85.53,2.15.1,2.46,1.03.45,1.35.08,2.77.6,3.94l3.02,6.76Z" fill="rgb(80, 90, 107)"/>
        <path d="M639.39,82.38c1.09.74,3.69,1.55,4.99,1,.05.17,0,.78-.34.79l-24.84.64c.7,2.3,2.61,1.64,3.25,2.12,1.07.8,1.1,1.95,1,2.95-.16,1.47-1.89,1.67-3.03,1.95-5.61-2.84-12.76.3-18.14-2.64l-8.06-4.39,14.1-1.18c3.13-.26,5.95-1.24,8.09-1.24h22.98Z" fill="rgb(80, 90, 107)"/>
        <path d="M675.47,147.6l-.16,1.45c-3.68.58-7.69,2.19-11.85,2.2-12.56.03-17.02,1.06-31.06,1.06v-1l25.51-1.48c6.14-.36,12-1.08,17.56-2.23Z" fill="rgb(13, 25, 45)"/>
        <path d="M685.26,155.91c-3.87.39-7.5,2.41-12.01,1.01.9-1.87,6.72,1.07,7.04-2.13.22-2.23-3.14-1.81-3.04-5.59-.13-3.06,9.88,5.47,8.02,6.71Z" fill="rgb(13, 25, 45)"/>
        <path d="M626.21,97.23c-.67.2-1.03-.68-1.34-.88-.74-.47-.84-1.82.25-1.91l1.09,2.79Z" fill="rgb(80, 90, 107)"/>
        <path d="M385.66,83.38c1.24,1.68,4.75,1.68,5.99,0h2c-.08.77.92,1.03,1.95,1.03h23.07c1.04,0,2.03-.25,1.95-1.03l62.03.25-23.96,1.59,19.76,2.5-29.51.83-5.25,4.85c.74,2.96-1.47,5.62-1.42,7.8.07,3.16-.08,5.9-.49,9.13l-3.26,25.9c-.17,1.34.71,2.73,1.22,3.46.58.82,1.89.73,2.85.63.86.9,1.2,2.55,2.93,2.19,0,1.12-.61,3.36.96,3.95,3.39,1.29,6.69-1.79,9.87,1.04-5.2,2.19-10.05-.16-14.61.8-2.2.77-3.72,1.13-6.14,1.13.16-.4-.29-1.13-1.05-1.13h-41.9c0-.45.2-1.17-.06-1.47-.75-.87-20.79-.09-24.97-.77-1.16-.75-.95-3.02-1.81-3.82l.07-.7c1.82-.11,5.78.35,5.06-2.18.22-.53,1.05-.89,1.54-1.1,3.31-1.45,3.59-5.19,4.52-8.72l2.66-10.07c-.16-.92-1.2-2.15-1-3.14.43.08,1.03.13,1.37-.14.38-.3.66-.91.77-1.75,1.16-8.64,6.81-23.15-1.14-23.09-4.85.04-9.61-.28-15.02-.17l-19.71.39c-2.58.05-5.03.9-6.23,2.78v-1c.85-1.56,3.03-3.31,4.99-3,2.95.46,5.8-.77,9.06-.8l25.98-.29c1.25-2,3.09-3.72,3.98-5.76l2.93-.14Z" fill="rgb(80, 90, 107)"/>
        <path d="M382.72,83.53c-.88,2.04-2.72,3.76-3.98,5.76l-25.98.29c-3.27.04-6.11,1.26-9.06.8-.84-1.09-2.72-1.19-3.54-2.78,1.24-4.56,12.06-.32,14.52-3.21.34-.4.93-1.07,1.95-1.06l26.09.21Z" fill="rgb(58, 70, 88)"/>
        <path d="M338.71,94.37l-15.73,33.15c-1.42,3-2.34,5.97-3.25,8.8h-1c-.1-1.32.2-2.69,0-4,2.53-1.67,2.29-5.38,3.98-7.98,2.98-4.57,4.8-9.14,6.99-14.14l4.23-9.65c1.27-2.89,2.11-6.04,4.77-7.18v1Z" fill="rgb(116, 130, 149)"/>
        <path d="M467.57,77.39v2c-7.04-.49-14,.54-21.58.57l-98.29.43v-1c1.55.83,4.03-1,6.08-1h69.84c15.74,0,27.36-1.06,43.95-1Z" fill="rgb(80, 90, 107)"/>
        <path d="M512.53,78.39l-28.99.25c-5.57.05-10.74,1.12-15.97.75v-2l107.95.38-62.99.62Z" fill="rgb(116, 130, 149)"/>
        <path d="M591.35,78.04c-4.9.88-9.58-.46-14.78,1.63-2.21-3.41,11.93-2.45,14.78-1.63Z" fill="rgb(80, 90, 107)"/>
        <circle cx="651.38" cy="98.37" r="1.11" fill="rgb(58, 70, 88)"/>
        <path d="M379.66,91.37c2.86.99,3.33,3.56,2.71,6.61l-3.71,18.36c-.2.99.84,2.22,1,3.14-3.03-2.55-2.81,13.44-7.19,18.79-.49.21-1.32.57-1.54,1.1-1.65.66-4.82-.05-5.06,2.18l-.07.7c-3.83-.91-8.38.38-12.12-.94-4.49-1.58-9.17-1-13.99-1,.12-.45-.35-.92-1.05-.93l-15.81-.16c-1.91-.02-3.04-1.47-3.12-2.9.91-2.83,1.82-5.81,3.25-8.8l15.73-33.15c1.2-1.87,3.66-2.72,6.23-2.78l19.71-.39c5.4-.11,10.16.21,15.02.17Z" fill="rgb(0, 2, 20)"/>
        <path d="M376.67,149.31c-7,0-14.03.41-21.42-.5-8.63-1.06-17.2-.45-25.53-.47-.13-.36.34-1.05,1.07-1.05l45.6.1c.49,0,.35,2.12.28,1.92Z" fill="rgb(80, 90, 107)"/>
        <path d="M392.65,148.31h41.9c.76,0,1.21.72,1.05,1.12l-54.94-.13c-.07-.78.9-1.02,1.94-1.02l10.05.02Z" fill="rgb(116, 130, 149)"/>
        <path d="M339.71,140.32c-2.65,0-6.06-.85-7.99,1-3.32,0-12.52,1.32-12.99-4.99h1c.08,1.43,1.21,2.89,3.12,2.9l15.81.16c.7,0,1.16.49,1.05.93Z" fill="rgb(80, 90, 107)"/>
        <path d="M339.71,140.32c4.81,0,9.49-.58,13.99,1h-21.98c1.94-1.85,5.34-1,7.99-1Z" fill="rgb(116, 130, 149)"/>
        <path d="M479.84,62.07c-3.98-16.77,1.37-41.12-.8-58.05-1.23-1.74-.42-3.08,1.65-1.6l-.85,59.64Z" fill="rgb(58, 70, 88)"/>
        <path d="M352.65,77c-2.81.61-5.6.75-9.05-.05,2.53-.92,5.07-.95,9.05.05Z" fill="rgb(13, 25, 45)"/>
        <path d="M658.37,258.2c.08.77-.92,1.02-1.96,1.02h-26.06c-1.04,0-2.03-.25-1.96-1.02h29.97Z" fill="rgb(58, 70, 88)"/>
        <path d="M694.34,258.2c.08.77-.92,1.03-1.95,1.03h-23.07c-1.04,0-2.03-.25-1.95-1.03h26.97Z" fill="rgb(58, 70, 88)"/>
        <path d="M191.86,258.2c-1.24,1.68-4.75,1.68-5.99,0,1.96,0,4.05.23,5.99,0Z" fill="rgb(13, 25, 45)"/>
        <path d="M445.53,142.52c-1.72.36-2.07-1.3-2.93-2.19-2.74-2.86-2.05-6.12-1.63-9.63l4.28-35.56c.88-7.3,7.54-3.92,22.83-5.26,12.43-1.09,24.74-.29,37.37-.43,2.82-.03,6.65,1.39,7.12,3.81l2.63,13.64c.46,2.38.66,3.19.67,5.52.07,12.84,7.79,28.59-2.42,28.95-20.72.72-41.01.81-61.82.45-2.39-.04-4.36-.02-6.1.69Z" fill="rgb(0, 2, 20)"/>
        <path d="M640.31,137.59c-1.07.99-2.61,1.27-3.91,1.74h-3c-1.08-.05-2.54-.22-3,1h-12.99l-1.81.3-12.18-.04c-3.64-.01-7.33-.35-10.99-.07-3.75-.64-6.99-1.72-8.14-6.34l-6.82-27.48c-.86-3.47-.93-6.8-1.63-10.37-1.63-8.26,13.15-5.48,16.83-5.23,7.98.54,16.09-.66,23.95.89,4.98.99,6.37,6.16,8.22,10.03l11.32,23.6c1.9,3.95,4.46,7.68,4.14,11.97Z" fill="rgb(0, 2, 20)"/>
        <path d="M420.62,83.38c.07.77-.92,1.02-1.95,1.02h-23.07c-1.04,0-2.03-.26-1.95-1.02h26.97Z" fill="rgb(58, 70, 88)"/>
        <path d="M603.43,140.58c-3.4,1.89-7.55.51-10.99-.07,3.65-.28,7.35.06,10.99.07Z" fill="rgb(80, 90, 107)"/>
        <path d="M391.65,83.38c-1.24,1.68-4.75,1.68-5.99,0h5.99Z" fill="rgb(58, 70, 88)"/>
        <circle cx="461.58" cy="147.32" r="1.11" fill="rgb(80, 90, 107)"/>
        <path d="M446.6,149.63c.12.93-.97.53-1.52.68-.65.18-1-.6-1.47-.74,1-.23,2,.05,3,.06Z" fill="rgb(80, 90, 107)"/>
        <path d="M569.47,149.6c.17.59-.21.62-.66.64-.6.04-1.51.18-1.34-.61l2-.03Z" fill="rgb(80, 90, 107)"/>
        <circle cx="595.94" cy="146.82" r=".5" fill="rgb(80, 90, 107)"/>
        <circle cx="449.09" cy="143.82" r=".5" fill="rgb(80, 90, 107)"/>
        <path d="M537.5,154.31c4.72,2.2,17.91.06,25.05,2.38l-7.65,1.71c8.24,2.86,16.31-1.68,24.45,2.58l-85.91.17c7.47-2.24,14.61.71,21.63-2.56,1.24-6.34,5.66-1.06,9.44-4.27h12.99Z" fill="rgb(13, 25, 45)"/>
        <path d="M597.44,151.31v2c-5,0-9.93.15-15.32.56-15.03,1.16-29.9.04-44.62.44h-51.95v-2h95.9c1.96,0,4.05.23,5.99,0,3.37-.41,6.61-1,9.99-1Z" fill="rgb(116, 130, 149)"/>
        <path d="M412.63,152.31h72.92v2c-11.69,0-23.26-.32-35.49-.48l-74.48-.97c12.77-1.29,24.88-.55,37.04-.55Z" fill="rgb(58, 70, 88)"/>
        <path d="M372.36,151.86c-8.28,3.16-16.79,1-25.11,1.04l-33.6-1.33,58.71.29Z" fill="rgb(13, 25, 45)"/>
        <path d="M632.4,151.31v1h-2c-1.66,0-4.05-.73-4.99,1h-27.97v-2h34.96Z" fill="rgb(80, 90, 107)"/>
        <path d="M587.45,152.31c-1.94.23-4.03,0-5.99,0,1.24-1.68,4.75-1.68,5.99,0Z" fill="rgb(80, 90, 107)"/>
        <path d="M630.4,152.31c-.95,1.64-3.34,1-4.99,1,.95-1.72,3.34-1,4.99-1Z" fill="rgb(13, 25, 45)"/>
        <path d="M511.84,156.22c1.04.56.61,1.1-.54,1.23-2.32-.16-2.03-1.36.54-1.23Z" fill="rgb(13, 25, 45)"/>
        <path d="M414.63,152.31h-2c-.18-.79.62-1.3,1.47-1,.33.12.67.48.53,1Z" fill="rgb(13, 25, 45)"/>
        <path d="M636.4,139.32c-.33.6-.17,2.13-1.91,2.12l-15.12-.1c-1.04,0-2.03-.24-1.95-1.02h12.99c1.1,0,2.23-.1,3-1h3Z" fill="rgb(116, 130, 149)"/>
        <path d="M378.67,116.35l3.71-18.36c.62-3.05.15-5.62-2.71-6.61,7.95-.06,2.3,14.45,1.14,23.09-.11.84-.39,1.45-.77,1.75-.34.27-.94.22-1.37.14Z" fill="rgb(116, 130, 149)"/>
        <path d="M379.67,119.49l-2.66,10.07c-.93,3.52-1.21,7.27-4.52,8.72,4.38-5.35,4.15-21.35,7.19-18.79Z" fill="rgb(116, 130, 149)"/>
        <path d="M370.95,139.38c.72,2.54-3.24,2.08-5.06,2.18.24-2.24,3.41-1.52,5.06-2.18Z" fill="rgb(116, 130, 149)"/>
        <path d="M633.4,139.32c-.77.9-1.89,1-3,1,.45-1.22,1.91-1.05,3-1Z" fill="rgb(80, 90, 107)"/>
      </g>
    </g>
  </g>
</svg>